<?xml version="1.0" standalone="no"?>
<!DOCTYPE svg PUBLIC "-//W3C//DTD SVG 20010904//EN"
 "http://www.w3.org/TR/2001/REC-SVG-20010904/DTD/svg10.dtd">
<svg version="1.0" xmlns="http://www.w3.org/2000/svg"
 width="105.000000pt" height="90.000000pt" viewBox="0 0 105.000000 90.000000"
 preserveAspectRatio="xMidYMid meet">

<g transform="translate(0.000000,90.000000) scale(0.100000,-0.100000)"
fill="#000000" stroke="none">
<path d="M460 871 c-49 -25 -94 -88 -120 -165 -12 -36 -29 -75 -39 -88 -10
-13 -30 -44 -45 -70 -20 -35 -34 -48 -54 -50 -27 -3 -27 -4 -28 -83 -1 -46 -8
-98 -17 -121 -21 -58 -40 -190 -32 -231 4 -24 14 -37 31 -43 33 -13 167 -13
233 0 61 11 183 68 262 121 56 38 119 119 119 153 0 14 5 17 25 12 58 -15 75
-25 68 -43 -6 -16 -5 -16 10 -4 22 18 21 26 -4 38 -20 8 -18 11 27 30 71 30
132 86 140 129 10 54 -11 111 -47 130 -49 25 -126 22 -184 -8 l-50 -26 -38 40
c-21 21 -59 48 -85 59 -25 11 -48 22 -50 24 -2 2 3 16 12 33 8 16 18 52 22 81
6 46 4 55 -16 76 -29 31 -89 34 -140 6z m118 -14 c30 -14 30 -78 -1 -132 l-23
-40 -92 -5 c-51 -3 -92 -1 -92 3 0 43 117 157 162 157 44 0 52 -29 23 -84 -29
-54 -32 -75 -11 -56 23 18 49 96 42 124 -8 33 -65 46 -101 22 -44 -29 -97 -88
-115 -130 -10 -22 -19 -35 -19 -28 -1 20 47 117 66 134 56 50 108 61 161 35z
m29 -229 c83 -30 100 -49 128 -142 43 -142 33 -168 -48 -127 -49 25 -168 45
-219 37 -35 -6 -40 -4 -45 15 -4 15 -30 33 -85 59 l-78 37 38 59 c21 32 45 64
53 71 33 27 172 22 256 -9z m373 -58 c11 -6 25 -20 31 -33 11 -21 10 -21 -15
3 -40 37 -126 36 -180 -2 -22 -15 -42 -25 -44 -23 -9 8 22 38 53 51 36 16 129
18 155 4z m13 -42 c12 -13 25 -22 29 -21 3 1 3 -11 -2 -27 -23 -79 -113 -150
-190 -150 l-47 0 -5 72 c-3 40 -3 78 -1 85 3 7 24 24 47 38 56 34 136 35 169
3z m-773 -42 c0 -15 -24 -66 -31 -66 -12 0 -11 27 1 51 9 16 30 27 30 15z
m133 -35 c43 -19 48 -24 45 -48 -2 -17 -10 -29 -21 -31 -16 -3 -17 -1 -7 18 9
16 8 25 -1 37 -12 13 -14 13 -26 -3 -7 -10 -13 -28 -13 -41 0 -26 -14 -29 -72
-12 -42 11 -45 22 -23 76 13 31 18 35 43 30 15 -3 49 -15 75 -26z m2 -61 c-4
-12 -9 -19 -12 -17 -3 3 -2 15 2 27 4 12 9 19 12 17 3 -3 2 -15 -2 -27z m182
-6 c20 -6 20 -7 5 -34 -13 -23 -14 -32 -5 -41 17 -17 40 3 48 41 6 28 6 28 48
16 42 -12 70 -46 60 -72 -11 -29 -114 -44 -166 -25 -54 21 -84 80 -55 109 13
13 31 15 65 6z m-90 -39 c2 -18 17 -43 38 -62 31 -30 41 -33 93 -33 84 0 122
15 129 52 4 20 10 27 20 24 8 -4 19 -6 24 -6 18 0 8 -28 -30 -78 -50 -68 -72
-84 -189 -142 -111 -55 -197 -75 -299 -68 -49 3 -69 9 -79 23 -22 29 -16 38
10 17 31 -24 86 -19 86 8 0 19 -82 56 -100 45 -12 -8 -10 3 26 144 14 52 26
97 29 99 2 2 18 -1 36 -7 44 -15 119 -13 149 4 36 21 53 15 57 -20z m115 -7
c-7 -7 -12 -8 -12 -2 0 6 3 14 7 17 3 4 9 5 12 2 2 -3 -1 -11 -7 -17z m-354
-244 c12 -4 22 -10 22 -15 0 -14 -34 -10 -56 6 -21 16 -8 20 34 9z"/>
</g>
</svg>
